<?xml version="1.0" encoding="UTF-8" ?>
<!DOCTYPE svg PUBLIC "-//W3C//DTD SVG 1.1//EN" "http://www.w3.org/Graphics/SVG/1.1/DTD/svg11.dtd">
<svg width="314pt" height="100pt" viewBox="0 0 314 100" version="1.1" xmlns="http://www.w3.org/2000/svg">
<path fill="#ffffff" d=" M 0.00 0.00 L 172.31 0.00 C 172.31 25.34 172.32 50.68 172.31 76.02 C 172.30 80.13 172.86 84.89 176.35 87.60 C 179.91 90.36 184.74 89.64 188.86 88.84 C 188.49 86.09 187.98 83.36 187.43 80.65 C 186.78 80.85 185.47 81.26 184.82 81.46 C 181.69 79.27 182.56 75.29 182.47 72.01 C 182.52 48.00 182.48 24.00 182.49 0.00 L 314.00 0.00 L 314.00 27.48 C 310.26 26.39 306.17 25.85 302.46 27.35 C 296.99 29.34 293.20 34.10 290.35 38.98 C 289.82 35.29 289.58 31.57 289.34 27.85 C 286.50 27.85 283.65 27.85 280.81 27.86 C 280.75 47.85 280.87 67.84 280.75 87.84 C 284.13 87.83 288.00 89.04 291.10 87.45 C 291.38 74.71 290.89 61.94 291.32 49.21 C 293.04 44.07 296.56 39.18 301.49 36.70 C 304.82 34.96 308.63 35.69 312.10 36.50 C 312.69 33.65 313.38 30.82 314.00 27.97 L 314.00 100.00 L 83.32 100.00 C 86.95 99.72 90.20 96.90 90.14 93.10 C 90.48 83.08 90.15 73.04 90.27 63.01 C 90.29 57.01 90.51 50.93 89.13 45.04 C 86.09 30.71 75.53 18.26 61.90 12.89 C 49.54 7.80 34.94 8.73 23.29 15.27 C 10.21 22.30 1.48 36.14 0.00 50.83 L 0.00 0.00 Z" />
<path fill="#010101" d=" M 172.31 0.00 L 182.49 0.00 C 182.48 24.00 182.52 48.00 182.47 72.01 C 182.56 75.29 181.69 79.27 184.82 81.46 C 185.47 81.26 186.78 80.85 187.43 80.65 C 187.98 83.36 188.49 86.09 188.86 88.84 C 184.74 89.64 179.91 90.36 176.35 87.60 C 172.86 84.89 172.30 80.13 172.31 76.02 C 172.32 50.68 172.31 25.34 172.31 0.00 Z" />
<path fill="#010101" d=" M 257.58 3.68 C 261.75 0.61 269.36 3.27 268.91 8.99 C 269.37 14.40 262.38 17.33 258.17 14.68 C 254.00 12.67 253.66 6.14 257.58 3.68 Z" />
<path fill="#56a3d9" d=" M 23.29 15.27 C 34.94 8.73 49.54 7.80 61.90 12.89 C 75.53 18.26 86.09 30.71 89.13 45.04 C 90.51 50.93 90.29 57.01 90.27 63.01 C 90.15 73.04 90.48 83.08 90.14 93.10 C 90.20 96.90 86.95 99.72 83.32 100.00 L 40.88 100.00 C 29.12 98.59 17.82 92.91 10.32 83.64 C 4.26 76.40 0.74 67.22 0.00 57.84 L 0.00 50.83 C 1.48 36.14 10.21 22.30 23.29 15.27 Z" />
<path fill="#ffffff" d=" M 36.40 21.62 C 53.02 16.88 71.87 27.07 77.36 43.36 C 83.21 58.57 76.24 77.14 62.00 84.94 C 48.18 93.22 28.90 89.75 18.73 77.28 C 9.29 66.46 7.88 49.60 15.42 37.37 C 19.98 29.63 27.70 23.85 36.40 21.62 Z" />
<path fill="#010101" d=" M 130.59 30.57 C 140.56 24.34 154.93 24.93 163.21 33.74 C 161.48 35.86 159.82 38.04 158.13 40.19 C 154.03 36.61 148.50 33.79 142.93 35.18 C 135.17 36.37 129.66 43.41 128.07 50.76 C 126.39 58.79 127.13 67.97 132.33 74.62 C 136.32 79.83 143.51 82.33 149.85 80.59 C 153.67 79.74 156.92 77.42 159.95 75.06 C 161.44 77.34 162.97 79.58 164.49 81.83 C 159.28 86.17 152.85 89.33 145.97 89.54 C 137.93 89.93 129.61 86.87 124.29 80.71 C 117.67 73.20 115.81 62.50 117.03 52.81 C 118.08 43.93 122.75 35.19 130.59 30.57 Z" />
<path fill="#010101" d=" M 198.19 34.13 C 205.64 29.60 214.10 26.06 222.97 26.44 C 228.53 26.53 234.35 28.64 237.80 33.18 C 241.64 38.21 242.72 44.74 242.70 50.93 C 242.66 63.34 242.78 75.74 242.63 88.15 C 239.88 88.13 237.14 88.13 234.39 88.15 C 233.92 85.71 233.63 83.25 233.37 80.79 C 228.58 84.61 223.25 88.11 217.11 89.23 C 211.48 90.19 205.15 89.17 200.84 85.19 C 195.49 80.47 194.35 72.24 196.81 65.77 C 198.94 60.47 204.01 57.08 209.13 55.04 C 216.59 52.11 224.58 50.74 232.54 50.04 C 232.54 45.84 231.85 41.29 228.87 38.10 C 225.64 34.78 220.52 34.34 216.20 35.26 C 211.09 36.03 206.52 38.58 202.24 41.33 C 200.89 38.92 199.52 36.54 198.19 34.13 Z" />
<path fill="#010101" d=" M 302.46 27.35 C 306.17 25.85 310.26 26.39 314.00 27.48 L 314.00 27.97 C 313.38 30.82 312.69 33.65 312.10 36.50 C 308.63 35.69 304.82 34.96 301.49 36.70 C 296.56 39.18 293.04 44.07 291.32 49.21 C 290.89 61.94 291.38 74.71 291.10 87.45 C 288.00 89.04 284.13 87.83 280.75 87.84 C 280.87 67.84 280.75 47.85 280.81 27.86 C 283.65 27.85 286.50 27.85 289.34 27.85 C 289.58 31.57 289.82 35.29 290.35 38.98 C 293.20 34.10 296.99 29.34 302.46 27.35 Z" />
<path fill="#56a3d9" d=" M 32.02 30.99 C 37.40 27.99 43.73 27.30 49.78 27.93 C 48.87 32.52 47.45 36.98 46.25 41.50 C 40.67 41.24 35.39 44.23 32.79 49.17 C 28.29 47.93 23.78 46.75 19.31 45.40 C 21.94 39.45 26.16 34.04 32.02 30.99 Z" />
<path fill="#010101" d=" M 256.68 27.85 C 260.05 27.86 263.42 27.86 266.79 27.84 C 266.85 47.94 266.88 68.05 266.77 88.15 C 263.41 88.13 260.04 88.14 256.68 88.14 C 256.65 68.04 256.65 47.95 256.68 27.85 Z" />
<path fill="#56a3d9" d=" M 18.14 50.11 C 22.61 51.27 27.05 52.52 31.49 53.77 C 31.20 59.36 34.21 64.68 39.19 67.25 C 37.97 71.77 36.80 76.29 35.42 80.76 C 23.43 76.14 15.52 62.86 18.14 50.11 Z" />
<path fill="#ffffff" d=" M 210.14 63.20 C 216.71 58.73 224.88 57.87 232.52 56.59 C 232.54 62.16 232.47 67.73 232.57 73.31 C 228.62 76.72 224.31 80.18 219.02 81.13 C 214.93 81.86 209.96 81.18 207.35 77.58 C 204.15 73.09 205.53 66.20 210.14 63.20 Z" />
<path fill="#ffffff" d=" M 0.00 57.84 C 0.74 67.22 4.26 76.40 10.32 83.64 C 17.82 92.91 29.12 98.59 40.88 100.00 L 0.00 100.00 L 0.00 57.84 Z" />
<path fill="#f1616f" d=" M 57.20 60.80 C 61.69 62.06 66.21 63.21 70.67 64.59 C 66.08 76.58 52.89 84.42 40.15 81.97 C 41.27 77.47 42.58 73.01 43.78 68.53 C 49.37 68.81 54.63 65.75 57.20 60.80 Z" />
</svg>
